<svg width="51" height="51" viewBox="0 0 51 51" fill="none" xmlns="http://www.w3.org/2000/svg">
<path d="M46 24.5C46 35.0829 37.0122 44 25.5 44C13.9878 44 5 35.0829 5 24.5C5 13.9171 13.9878 5 25.5 5C37.0122 5 46 13.9171 46 24.5Z" stroke="#646BD9" stroke-width="10"/>
<path d="M34.3946 50.4687C32.2623 49.825 30.36 48.6233 28.9023 46.999C27.4445 45.3747 26.4891 43.3925 26.1439 41.2757C25.7987 39.159 26.0774 36.9919 26.9485 35.0188C27.8197 33.0457 29.2486 31.3451 31.0743 30.1086C32.9 28.8721 35.0498 28.1489 37.2814 28.0206C39.5129 27.8923 41.7375 28.364 43.7044 29.3824C45.6712 30.4009 47.3021 31.9256 48.4131 33.7847C49.5242 35.6438 50.0712 37.7634 49.9926 39.9045L38 39.5L34.3946 50.4687Z" fill="white"/>
<path d="M11.9264 8.94848L19.4661 11.6806L12.5864 16.9408L11.9264 8.94848Z" fill="white"/>
<circle cx="26" cy="25" r="6" fill="#646BD9"/>
</svg>
